# xmcd
# 
# Track frame offsets:
#     150
#     14856
#     27009
#     38413
#     63017
#     73822
#     88075
# 
# Disc length: 1312
# 
# Revision: 0
# Processed by: cddbd v1.5.2PL0 Copyright (c) Steve Scherf et al.
# Submitted via: fre:ac v1.0.17
# 
DISCID=53051e07
DTITLE=Bernd Bobert - Stadtparkstrasseneinkaufspassagenmusikant
DYEAR=0
DGENRE=
TTITLE0=Stadtparkstrasseneinkaufspassagenmusikant
TTITLE1=Farbenstimmung
TTITLE2=Drei
TTITLE3=Aufstand
TTITLE4=Blatt Papier
TTITLE5=Tag für Tag
TTITLE6=Bewegung
EXTD=
EXTT0=
EXTT1=
EXTT2=
EXTT3=
EXTT4=
EXTT5=
EXTT6=
PLAYORDER=
